# xmcd
#
# Track frame offsets: 
#        150
#        14174
#        28457
#        44219
#        57572
#        70329
#        83884
#        98557
#        112752
#        125584
#        139682
#        153162
#        167364
#        180842
#        194544
#        207803
#
# Disc length: 2935 seconds
#
# Revision: 0
# Processed by: cddbd v1.5.2PL0 Copyright (c) Steve Scherf et al.
# Submitted via: ExactAudioCopy v1.0b4
#
DISCID=de0b7510
DTITLE=John Lee Hooker - Slims Stomp (LP)
DYEAR=1949
DGENRE=Blues
TTITLE0=Stomp Boogie
TTITLE1=Who' s Been Jivin' You
TTITLE2=Black Man Blues
TTITLE3=Poor Joe
TTITLE4=Nightmare Blues
TTITLE5=Late Last Night
TTITLE6=Wandering Blues
TTITLE7=Don' t Go Baby
TTITLE8=Devil' s Jump
TTITLE9=I' m Gonna Kill That Woman
TTITLE10=Moaning Blues
TTITLE11=The Numbers
TTITLE12=Heart Trouble Blues
TTITLE13=Slim' s Stomp
TTITLE14=Thinking Blues
TTITLE15=Don' t You Remember Me
EXTD=
EXTT0=
EXTT1=
EXTT2=
EXTT3=
EXTT4=
EXTT5=
EXTT6=
EXTT7=
EXTT8=
EXTT9=
EXTT10=
EXTT11=
EXTT12=
EXTT13=
EXTT14=
EXTT15=
PLAYORDER=
